:SAMPLES-PER-SECOND 30
:FULLY-SPECIFIED
:DEGREES
444
root  34.3802 38.4018 6.53649 178.038 -64.0995 174.621
RightUpLeg  -10.8057 -2.90405 -11.1983
RightLeg  65.2868 -1.1424 -3.33396
RightFoot  -6.20764 -0.187828 3.24133
RightToes  -5.8209e-011 0 -3.6325e-017
Spine  13.0519 -1.46231 -3.72659
Spine1  9.10949 -3.2954 1.0534
HEad  -21.5384 10.8061 -14.1121
LeftShoulder1  1.18874 -0.221437 -25.7307
LeftArm  -5.60976 -21.3144 -29.7098
LeftForeArm  23.465 -75.9375 -53.7706
LeftHand  -0.000877638 -0.596196 0.100327
RightShoulder  0.0846049 -3.17832 21.9446
RightArm  -21.3544 -8.4 29.8847
RightForeArm  95.4568 75.6912 127.283
RightHand  0.0681664 4.54543 0.528168
LeftUpLeg  -2.95006 12.6992 -5.72878
LeftLeg  21.3403 11.0353 2.9952
LeftFoot  -13.861 0.209518 5.73053
LeftToes  -8.31281e-010 4.41007e-011 3.74621e-011
445
root  33.5416 38.589 6.10972 177.963 -68.4977 174.439
RightUpLeg  -13.5256 -2.42205 -10.1292
RightLeg  63.1855 -1.03445 -2.79431
RightFoot  -6.17192 -0.169107 2.82549
RightToes  -5.8209e-011 0 -3.6325e-017
Spine  13.0459 -1.65368 -3.63283
Spine1  9.14358 -3.40262 1.10189
HEad  -21.431 10.2461 -12.905
LeftShoulder1  1.12443 0.00855293 -26.0014
LeftArm  -5.59187 -19.7755 -29.6761
LeftForeArm  26.2778 -76.4933 -57.467
LeftHand  -0.0341135 0.234824 0.724707
RightShoulder  0.155613 -2.92079 21.4788
RightArm  -21.7072 -8.29547 29.8368
RightForeArm  99.3992 75.4481 129.041
RightHand  0.0226791 4.66858 -0.0367934
LeftUpLeg  0.275069 8.97261 -5.49802
LeftLeg  18.7029 10.5497 1.99695
LeftFoot  -13.8929 0.209485 5.64917
LeftToes  -8.31281e-010 4.41007e-011 3.74621e-011
446
root  32.6502 38.6877 5.74038 179.589 -73.3789 172.815
RightUpLeg  -15.9267 -3.09458 -10.1584
RightLeg  58.5117 -1.02839 -2.28066
RightFoot  -6.1819 -0.142563 2.26334
RightToes  -5.8209e-011 0 -3.6325e-017
Spine  13.1862 -1.94251 -3.61836
Spine1  8.61197 -3.58016 1.04561
HEad  -21.4919 8.2746 -11.9046
LeftShoulder1  1.07265 0.20028 -26.3047
LeftArm  -5.22133 -19.279 -30.2817
LeftForeArm  29.2461 -76.8478 -59.8764
LeftHand  -0.0112835 0.477486 0.202577
RightShoulder  0.0832512 -3.17975 21.4402
RightArm  -21.3501 -8.60278 28.9325
RightForeArm  103.055 74.6339 132.775
RightHand  0.0352834 4.93773 0.0638824
LeftUpLeg  2.77942 6.42926 -6.03136
LeftLeg  16.7257 8.43831 1.66822
LeftFoot  -14.0466 0.215939 5.56221
LeftToes  -8.31281e-010 4.41007e-011 3.74621e-011
447
root  31.7045 38.736 5.329 -179.202 -77.8617 171.359
RightUpLeg  -17.0564 -3.5509 -10.1923
RightLeg  51.1041 -1.1196 -1.83661
RightFoot  -7.56695 -0.158161 3.21925
RightToes  -5.8209e-011 0 -3.6325e-017
Spine  12.9275 -2.25893 -3.41792
Spine1  9.04182 -3.76114 0.820693
HEad  -21.6352 6.23994 -10.7439
LeftShoulder1  1.09726 0.116942 -26.2319
LeftArm  -5.04456 -18.6378 -30.8751
LeftForeArm  32.1266 -77.2003 -62.8161
LeftHand  -0.0478466 0.10809 1.05161
RightShoulder  0.0555749 -3.27675 21.1532
RightArm  -20.3667 -8.50085 29.3899
RightForeArm  102.704 73.9055 135.103
RightHand  -0.0987763 3.88158 -1.48022
LeftUpLeg  5.39466 5.84876 -5.68096
LeftLeg  15.4106 4.77564 1.28492
LeftFoot  -14.6115 0.245541 5.52098
LeftToes  -8.31281e-010 4.41007e-011 3.74621e-011
448
root  30.6989 38.7509 4.89261 -178.157 -81.4925 170.24
RightUpLeg  -17.5422 -3.11275 -10.0037
RightLeg  41.133 -1.32582 -1.53227
RightFoot  -7.69705 -0.168568 3.65482
RightToes  -5.8209e-011 0 -3.6325e-017
Spine  12.2271 -2.45251 -2.80291
Spine1  9.89569 -3.64214 0.293594
HEad  -21.7407 4.94942 -10.1475
LeftShoulder1  1.06839 0.201397 -26.1886
LeftArm  -5.00806 -18.3523 -31.4751
LeftForeArm  35.0591 -77.4883 -65.4486
LeftHand  -0.0850669 0.25672 1.91693
RightShoulder  0.049106 -3.30298 21.5931
RightArm  -20.8072 -8.14861 30.1824
RightForeArm  102.125 73.7214 135.57
RightHand  -0.156373 4.48539 -2.12685
LeftUpLeg  7.7124 5.84126 -4.7626
LeftLeg  14.4703 1.08657 1.04326
LeftFoot  -15.4033 0.285901 5.44521
LeftToes  -8.31281e-010 4.41007e-011 3.74621e-011
449
root  29.6382 38.7012 4.47529 -173.563 -84.3635 165.776
RightUpLeg  -17.295 -2.09752 -10.4243
RightLeg  29.194 -1.46927 -1.03815
RightFoot  -7.44322 -0.159107 3.18382
RightToes  -5.8209e-011 0 -3.6325e-017
Spine  11.819 -2.39235 -2.73088
Spine1  9.9979 -3.476 0.50221
HEad  -22.1415 3.56223 -9.06653
LeftShoulder1  1.02954 0.380733 -26.8157
LeftArm  -5.01227 -18.0069 -31.5571
LeftForeArm  37.149 -77.6925 -67.8169
LeftHand  -0.106326 0.515124 2.49343
RightShoulder  0.0333253 -3.36015 22.005
RightArm  -21.8105 -8.02084 30.9877
RightForeArm  101.26 73.6886 135.533
RightHand  -0.176154 4.22851 -2.39805
LeftUpLeg  9.73609 6.14349 -3.80757
LeftLeg  13.8095 -2.22911 0.548935
LeftFoot  -16.4181 0.342054 5.47831
LeftToes  -8.31281e-010 4.41007e-011 3.74621e-011
450
root  28.4819 38.5916 4.07526 -158.155 -86.3288 150.628
RightUpLeg  -16.6056 -2.66862 -10.8914
RightLeg  16.6149 -1.01934 -0.911169
RightFoot  -7.43331 -0.180646 3.84682
RightToes  -5.8209e-011 0 -3.6325e-017
Spine  10.9186 -2.2994 -2.51271
Spine1  10.5265 -3.1611 0.35979
HEad  -22.9029 2.7056 -8.95897
LeftShoulder1  1.0103 0.486948 -27.3572
LeftArm  -5.46231 -17.3629 -31.4526
LeftForeArm  39.9063 -77.8912 -69.971
LeftHand  -0.0950536 0.528682 2.2092
RightShoulder  -0.00971346 -3.51179 22.3771
RightArm  -22.8763 -7.49899 32.0458
RightForeArm  103.334 73.5731 136.201
RightHand  -0.134702 3.52418 -2.00666
LeftUpLeg  11.8322 6.30074 -3.20948
LeftLeg  12.9421 -4.7622 0.246317
LeftFoot  -17.5038 0.39777 5.43874
LeftToes  -8.31281e-010 4.41007e-011 3.74621e-011
451
root  27.25 38.4214 3.69578 -120.436 -87.7172 113.129
RightUpLeg  -15.6902 -8.01 -10.1665
RightLeg  5.65127 1.95232 -0.956762
RightFoot  -7.31563 -0.272459 6.2213
RightToes  -5.8209e-011 0 -3.6325e-017
Spine  9.83128 -2.40872 -2.01908
Spine1  11.4658 -3.0145 0.0181179
HEad  -23.9972 1.529 -8.59449
LeftShoulder1  0.973926 0.614034 -27.5733
LeftArm  -6.15748 -17.0582 -31.3363
LeftForeArm  40.5676 -77.9283 -70.2976
LeftHand  -0.0532508 0.572568 1.21711
RightShoulder  0.000541055 -3.47586 22.3133
RightArm  -23.7575 -7.20974 33.4263
RightForeArm  104.62 73.2075 137.45
RightHand  -0.118414 3.59127 -1.78058
LeftUpLeg  13.9689 6.13515 -2.7362
LeftLeg  12.2541 -7.04405 0.271002
LeftFoot  -18.7748 0.435314 4.95864
LeftToes  -8.31281e-010 4.41007e-011 3.74621e-011
452
root  25.9331 38.1515 3.25741 -75.1327 -87.8759 67.4538
RightUpLeg  -14.5561 -10.439 -9.49303
RightLeg  -0.692182 0.865139 -0.214588
RightFoot  -6.46133 -0.421729 8.71479
RightToes  -5.8209e-011 0 -3.6325e-017
Spine  9.4527 -2.40941 -0.971178
Spine1  12.1262 -2.73976 -0.450355
HEad  -24.6882 0.0704046 -8.68418
LeftShoulder1  0.990341 0.538576 -27.2619
LeftArm  -6.72941 -16.1783 -31.3724
LeftForeArm  41.4121 -77.9898 -71.1572
LeftHand  -0.0848332 0.385274 1.94252
RightShoulder  -0.0295202 -3.57864 22.8383
RightArm  -23.7286 -6.59946 33.6796
RightForeArm  105.436 73.0189 138.09
RightHand  -0.0664111 3.45896 -1.11958
LeftUpLeg  16.3071 5.85348 -1.42322
LeftLeg  12.8222 -8.7962 0.167732
LeftFoot  -20.6676 0.50343 4.64321
LeftToes  -8.31281e-010 4.41007e-011 3.74621e-011
453
root  24.5915 37.8155 2.82046 -36.5688 -87.237 27.9769
RightUpLeg  -14.0901 -10.1994 -8.63349
RightLeg  0.0701177 -1.13782 0.44194
RightFoot  -4.96928 -0.390343 7.1231
RightToes  -5.8209e-011 0 -3.6325e-017
Spine  10.1464 -2.48372 0.503425
Spine1  12.2554 -2.72204 -0.341424
HEad  -25.031 -0.359253 -8.93549
LeftShoulder1  0.998164 0.508906 -27.1855
LeftArm  -7.43122 -15.159 -31.3454
LeftForeArm  41.9925 -78.023 -71.5068
LeftHand  -0.0670399 0.5877 1.56251
RightShoulder  -0.0574643 -3.67305 23.0461
RightArm  -23.0043 -5.44346 33.4049
RightForeArm  105.518 72.9274 138.348
RightHand  -0.0993853 2.8129 -1.63826
LeftUpLeg  18.7662 3.7374 -0.32334
LeftLeg  14.2542 -8.36508 0.280928
LeftFoot  -22.9467 0.554756 4.10133
LeftToes  -8.31281e-010 4.41007e-011 3.74621e-011
454
root  23.2456 37.5593 2.35657 -10.2061 -86.6683 1.05688
RightUpLeg  -15.605 -9.04066 -6.53523
RightLeg  6.23576 -0.144791 0.309859
RightFoot  1.65938 -0.250691 2.01882
RightToes  -5.8209e-011 0 -3.6325e-017
Spine  10.8494 -2.6595 2.73677
Spine1  12.1941 -2.77477 0.0636688
HEad  -26.1363 -0.327194 -9.29778
LeftShoulder1  0.912531 0.78751 -27.4918
LeftArm  -8.33075 -14.2498 -30.6569
LeftForeArm  43.3759 -78.1116 -72.7975
LeftHand  -0.0594219 0.529575 1.35756
RightShoulder  -0.0328749 -3.59019 22.864
RightArm  -21.9218 -4.02581 33.4935
RightForeArm  106.114 72.8962 138.519
RightHand  -0.126281 2.17529 -2.12896
LeftUpLeg  20.6567 -0.0640646 0.961945
LeftLeg  16.0377 -5.57367 -0.210175
LeftFoot  -24.4083 0.43214 2.50844
LeftToes  -8.31281e-010 4.41007e-011 3.74621e-011
